<svg id="Layer_2" height="512" viewBox="0 0 128 128" width="512" xmlns="http://www.w3.org/2000/svg" data-name="Layer 2"><path d="m96.436 70.294a8.523 8.523 0 0 0 -6.236 1.913 8.412 8.412 0 0 0 -13.43-4.09 8.411 8.411 0 0 0 -13.05-4.486v-31.761a12.533 12.533 0 1 0 -16.957 0v31.061l-5.386 4.369a27.074 27.074 0 0 0 -10.053 21.106 27.348 27.348 0 0 0 2.695 11.8l12.915 26.8a1.751 1.751 0 0 0 1.577.99h53.828a1.75 1.75 0 0 0 1.75-1.75v-47.223a8.7 8.7 0 0 0 -7.653-8.729zm-50.231-47.621a9.033 9.033 0 1 1 17.046 4.171 8.429 8.429 0 0 0 -16.069-.083 8.991 8.991 0 0 1 -.977-4.088zm54.382 101.827h-50.978l-12.437-25.813a23.683 23.683 0 0 1 6.411-28.67l3.177-2.579v28.612a1.75 1.75 0 0 0 3.5 0v-66.65a4.991 4.991 0 0 1 1.631-3.685 4.926 4.926 0 0 1 2.789-1.265 5.087 5.087 0 0 1 1.053-.005 5.177 5.177 0 0 1 4.484 5.244v40.8a1.75 1.75 0 0 0 3.5 0 4.991 4.991 0 0 1 1.631-3.685 4.939 4.939 0 0 1 3.842-1.27 5.176 5.176 0 0 1 4.484 5.244v3.883a1.75 1.75 0 0 0 3.5 0 4.979 4.979 0 0 1 5.474-4.955 5.176 5.176 0 0 1 4.483 5.244v3.779a1.75 1.75 0 0 0 3.5 0 4.979 4.979 0 0 1 5.469-4.95 5.176 5.176 0 0 1 4.483 5.244z"/><path d="m40.392 37.52a1.75 1.75 0 0 0 2.475-2.475 17.517 17.517 0 0 1 0-24.744 1.75 1.75 0 0 0 -2.475-2.475 21.02 21.02 0 0 0 0 29.694z"/><path d="m67.61 35.045a1.75 1.75 0 1 0 2.475 2.475 21.02 21.02 0 0 0 0-29.693 1.75 1.75 0 0 0 -2.475 2.473 17.517 17.517 0 0 1 0 24.745z"/><path d="m34.315 45.346a1.75 1.75 0 0 0 1.237-2.987 27.872 27.872 0 0 1 0-39.372 1.75 1.75 0 1 0 -2.474-2.474 31.375 31.375 0 0 0 0 44.321 1.744 1.744 0 0 0 1.237.512z"/><path d="m74.924 42.358a1.75 1.75 0 1 0 2.476 2.475 31.377 31.377 0 0 0 0-44.32 1.75 1.75 0 0 0 -2.475 2.475 27.873 27.873 0 0 1 -.001 39.37z"/></svg>